<svg xmlns="http://www.w3.org/2000/svg" xmlns:xlink="http://www.w3.org/1999/xlink" fill="none" preserveAspectRatio="xMidYMid meet" style="fill: none;" version="1.0" viewBox="0.1 0.3 584.9 1157.9" zoomAndPan="magnify" original_string_length="1222"><path d="M369.242 1158.24H141.139V571.608H0.117188V378.11H141.139V315.914C141.139 211.999 165.029 133.422 212.807 80.1844C261.099 26.9469 338.674 0.328125 445.533 0.328125C465.055 0.328125 488.687 1.60787 516.429 4.16736C544.685 6.21493 567.546 8.51847 585.014 11.078V202.273C576.794 201.249 564.465 200.225 548.025 199.201C532.099 197.665 519.769 196.897 511.035 196.897C460.688 196.897 424.469 207.136 402.378 227.612C380.287 248.087 369.242 283.409 369.242 333.575V378.11H580.39L554.96 571.608H369.242V1158.24Z" style="fill: url(&quot;#__id4_sw2zuf31sf&quot;);"/><defs><linearGradient gradientUnits="userSpaceOnUse" id="__id4_sw2zuf31sf" x1=".114" x2=".114" xlink:actuate="onLoad" xlink:show="other" xlink:type="simple" y1=".328" y2="1158.26"><stop style="stop-color: rgb(60, 65, 86);"/><stop offset="1" style="stop-color: rgb(60, 65, 86);"/></linearGradient></defs></svg>