<svg id="visual" viewBox="0 0 900 600" width="900" height="600" xmlns="http://www.w3.org/2000/svg" xmlns:xlink="http://www.w3.org/1999/xlink" version="1.1"><rect width="900" height="600" fill="#fff"></rect><g><g transform="translate(223 130)"><path d="M0 -126.6L99 -78.9L123.4 28.2L54.9 114.1L-54.9 114.1L-123.4 28.2L-99 -78.9Z" fill="none" stroke="#2c4251" stroke-width="2"></path></g><g transform="translate(666 345)"><path d="M0 -47L36.7 -29.3L45.8 10.5L20.4 42.3L-20.4 42.3L-45.8 10.5L-36.7 -29.3Z" fill="none" stroke="#2c4251" stroke-width="2"></path></g><g transform="translate(407 442)"><path d="M0 -28L21.9 -17.5L27.3 6.2L12.1 25.2L-12.1 25.2L-27.3 6.2L-21.9 -17.5Z" stroke="#2c4251" fill="none" stroke-width="2"></path></g><g transform="translate(134 375)"><path d="M0 -73L57.1 -45.5L71.2 16.2L31.7 65.8L-31.7 65.8L-71.2 16.2L-57.1 -45.5Z" stroke="#2c4251" fill="none" stroke-width="2"></path></g></g></svg>