<svg id="visual" viewBox="0 0 900 600" width="900" height="600" xmlns="http://www.w3.org/2000/svg" xmlns:xlink="http://www.w3.org/1999/xlink" version="1.1"><rect x="0" y="0" width="900" height="600" fill="#2c4251"></rect><defs><linearGradient id="grad1_0" x1="33.3%" y1="0%" x2="100%" y2="100%"><stop offset="20%" stop-color="#2c4251" stop-opacity="1"></stop><stop offset="80%" stop-color="#2c4251" stop-opacity="1"></stop></linearGradient></defs><defs><linearGradient id="grad2_0" x1="0%" y1="0%" x2="66.7%" y2="100%"><stop offset="20%" stop-color="#2c4251" stop-opacity="1"></stop><stop offset="80%" stop-color="#2c4251" stop-opacity="1"></stop></linearGradient></defs><g transform="translate(900, 0)"><path d="M0 135.2C-30.5 135.6 -61 136.1 -67.6 117.1C-74.2 98.1 -56.8 59.7 -64.1 37C-71.4 14.3 -103.3 7.1 -135.2 0L0 0Z" fill="#628395"></path></g><g transform="translate(0, 600)"><path d="M0 -135.2C10.3 -108.8 20.7 -82.4 43 -74.5C65.3 -66.5 99.7 -76.9 117.1 -67.6C134.5 -58.3 134.8 -29.1 135.2 0L0 0Z" fill="#628395"></path></g></svg>