<svg id="visual" viewBox="0 0 900 600" width="900" height="600" xmlns="http://www.w3.org/2000/svg" xmlns:xlink="http://www.w3.org/1999/xlink" version="1.1"><rect width="900" height="600" fill="#2c4251"></rect><g><g transform="translate(736 282)"><path d="M0 -114.9L81.3 -81.3L114.9 0L81.3 81.3L0 114.9L-81.3 81.3L-114.9 0L-81.3 -81.3Z" stroke="#628395" fill="none" stroke-width="2"></path></g><g transform="translate(394 51)"><path d="M0 -107L75.7 -75.7L107 0L75.7 75.7L0 107L-75.7 75.7L-107 0L-75.7 -75.7Z" stroke="#628395" fill="none" stroke-width="2"></path></g><g transform="translate(197 453)"><path d="M0 -91L64.3 -64.3L91 0L64.3 64.3L0 91L-64.3 64.3L-91 0L-64.3 -64.3Z" stroke="#628395" fill="none" stroke-width="2"></path></g><g transform="translate(127 179)"><path d="M0 -70L49.5 -49.5L70 0L49.5 49.5L0 70L-49.5 49.5L-70 0L-49.5 -49.5Z" stroke="#628395" fill="none" stroke-width="2"></path></g></g></svg>