<svg id="visual" viewBox="0 0 900 600" width="900" height="600" xmlns="http://www.w3.org/2000/svg" xmlns:xlink="http://www.w3.org/1999/xlink" version="1.1"><rect width="900" height="600" fill="#628395"></rect><g><g transform="translate(819 79)"><path d="M0 -114.9L73.9 -88L113.2 -20L99.5 57.5L39.3 108L-39.3 108L-99.5 57.5L-113.2 -20L-73.9 -88Z" stroke="#2c4251" fill="none" stroke-width="2"></path></g><g transform="translate(271 489)"><path d="M0 -105L67.5 -80.4L103.4 -18.2L90.9 52.5L35.9 98.7L-35.9 98.7L-90.9 52.5L-103.4 -18.2L-67.5 -80.4Z" stroke="#2c4251" fill="none" stroke-width="2"></path></g><g transform="translate(204 2)"><path d="M0 -74L47.6 -56.7L72.9 -12.8L64.1 37L25.3 69.5L-25.3 69.5L-64.1 37L-72.9 -12.8L-47.6 -56.7Z" stroke="#2c4251" fill="none" stroke-width="2"></path></g><g transform="translate(500 595)"><path d="M0 -90L57.9 -68.9L88.6 -15.6L77.9 45L30.8 84.6L-30.8 84.6L-77.9 45L-88.6 -15.6L-57.9 -68.9Z" stroke="#2c4251" fill="none" stroke-width="2"></path></g><g transform="translate(731 336)"><path d="M0 -64L41.1 -49L63 -11.1L55.4 32L21.9 60.1L-21.9 60.1L-55.4 32L-63 -11.1L-41.1 -49Z" stroke="#2c4251" fill="none" stroke-width="2"></path></g><g transform="translate(460 123)"><path d="M0 -71L45.6 -54.4L69.9 -12.3L61.5 35.5L24.3 66.7L-24.3 66.7L-61.5 35.5L-69.9 -12.3L-45.6 -54.4Z" stroke="#2c4251" fill="none" stroke-width="2"></path></g></g></svg>